# xmcd
# Track frame offsets:
# 150
# 12615
# 24032
# 33967
# 50872
# 64065
# 73660
# 93802
# 110000
# 120552
#
# Disc length: 1758 seconds
# Revision: 0
# Processed by: cddbd v1.4PL0 Copyright (c) Steve Scherf et al.
# Submitted via: VisiTrax 2.9.5.180 - For more info visit www.synapsa.com
#
DISCID=8106dc0a
DTITLE=Jacob Lyda - Here we go again
DYEAR=1997
DGENRE=
TTITLE0=Here we go again
TTITLE1=Dew Drop Inn
TTITLE2=There's a saddle for everybody's ride
TTITLE3=The first stone
TTITLE4=Forgive me darlin'
TTITLE5=Wound up tight
TTITLE6=There's no love left
TTITLE7=Walkin' in my tracks
TTITLE8=They'll make it anyway
TTITLE9=Any fool can break a heart
EXTD=
EXTT0=
EXTT1=
EXTT2=
EXTT3=
EXTT4=
EXTT5=
EXTT6=
EXTT7=
EXTT8=
EXTT9=
PLAYORDER=
